<svg width="60" height="64" viewBox="0 0 60 64" fill="none" xmlns="http://www.w3.org/2000/svg">
<g filter="url(#filter0_d_52_99)">
<circle cx="30" cy="30" r="29" fill="#D6FCF7" stroke="#18191F" stroke-width="2"/>
</g>
<g clip-path="url(#clip0_52_99)">
<path d="M22.4045 33.0628L22.4045 33.0628C22.0865 32.8007 21.7116 32.7619 21.5251 32.761C21.427 32.7605 21.3287 32.76 21.2302 32.7595C20.3311 32.7549 19.4219 32.7503 18.5125 32.7611C18.2913 32.7637 18.1745 32.7313 18.1137 32.7023C18.0993 32.6954 18.0831 32.6866 18.0654 32.6731C18.0516 31.0321 18.0508 29.3923 18.0508 27.7306C18.0664 27.7055 18.0792 27.6898 18.0876 27.6807C18.0984 27.669 18.1044 27.6654 18.106 27.6644C18.1076 27.6634 18.1138 27.6598 18.1296 27.656C18.1463 27.6518 18.1777 27.6465 18.2286 27.6468C18.5938 27.6489 18.9459 27.6469 19.2916 27.6451C19.9181 27.6417 20.5232 27.6384 21.1457 27.659C21.8633 27.6828 22.3426 27.3676 22.6867 27.0745C23.0272 26.7845 23.3623 26.5104 23.706 26.2294C23.9264 26.0491 24.1504 25.866 24.3815 25.6739C24.6208 25.4751 24.8218 25.3044 25.0186 25.1372C25.2338 24.9543 25.4441 24.7757 25.6939 24.5693C25.961 24.3486 26.2306 24.1298 26.5042 23.9078L26.5163 23.898C26.7848 23.6802 27.0572 23.4592 27.3281 23.2355C27.3781 23.1942 27.4285 23.1527 27.4793 23.1109C27.8624 22.795 28.2637 22.4643 28.6513 22.118L27.9902 21.3781L28.6513 22.118C28.7814 22.0017 28.8783 22.004 28.9143 22.0108C28.9442 22.0165 29.0164 22.0397 29.0795 22.1759C29.0804 22.1787 29.0839 22.1902 29.0877 22.2123C29.0933 22.2459 29.0971 22.2902 29.0972 22.3425C29.1027 27.5635 29.1038 32.7844 29.0987 38.0051C29.0986 38.1712 29.0589 38.2565 29.0387 38.287C29.0292 38.3013 29.0212 38.3086 29.0139 38.3137C29.0067 38.3188 28.9889 38.3297 28.9516 38.3391C28.8708 38.3595 28.8248 38.3557 28.8046 38.3519C28.7885 38.3489 28.768 38.3426 28.7361 38.3165C28.2599 37.9262 27.8002 37.5407 27.3356 37.1512C26.9813 36.8542 26.6243 36.5549 26.255 36.2493C25.8819 35.9405 25.507 35.6348 25.1354 35.3318L25.1286 35.3262C24.7583 35.0243 24.3913 34.7251 24.0269 34.4236L23.3894 35.1941L24.0269 34.4236C23.7699 34.211 23.5146 33.9952 23.2546 33.7754L23.2248 33.7502C22.956 33.5229 22.6821 33.2916 22.4045 33.0628ZM17.8923 27.9699C17.8913 27.9713 17.8907 27.972 17.8907 27.972C17.8907 27.9721 17.8912 27.9714 17.8923 27.9699Z" fill="#00C6AE" stroke="black" stroke-width="2"/>
<path d="M37.3295 20.1981L37.3294 20.1979L37.3295 20.1981ZM37.3295 20.1981L37.3491 20.2179M37.3295 20.1981L37.3491 20.2179M37.3491 20.2179L37.3493 20.218L37.3491 20.2179ZM41.0396 35.5035L41.9675 35.8763L41.0396 35.5035C40.6325 36.5168 40.1247 37.4663 39.4959 38.3395L40.3075 38.9238L39.4959 38.3395C39.2341 38.7032 38.9876 39.0341 38.7233 39.3321C38.6831 39.3774 38.6532 39.3924 38.6395 39.3979C38.6252 39.4036 38.6084 39.4069 38.5847 39.4047C38.5354 39.4002 38.4262 39.3652 38.3142 39.2275C38.2477 39.1457 38.231 39.0971 38.2268 39.0826C38.2233 39.0701 38.2224 39.0609 38.225 39.0439C38.2336 38.9888 38.2771 38.8761 38.4216 38.6845C38.8604 38.1027 39.2699 37.4976 39.6486 36.8788C40.2333 35.9232 40.6398 34.8968 40.9159 33.846C41.0787 33.2267 41.1987 32.6008 41.291 31.9838C41.3731 31.4343 41.4604 30.8033 41.4508 30.1597C41.4315 28.853 41.2516 27.5524 40.8626 26.274C40.4479 24.9113 39.8408 23.6344 39.0097 22.4613L38.2231 23.0186L39.0097 22.4613C38.8335 22.2126 38.6476 21.9764 38.4787 21.762L38.4712 21.7525C38.3029 21.5389 38.1512 21.3463 38.0104 21.1504C38.0091 21.147 38.007 21.1411 38.0048 21.1323C37.9984 21.1068 37.9943 21.0712 37.9969 21.0313C37.9995 20.9916 38.0079 20.9591 38.0173 20.9365C38.0217 20.9258 38.0259 20.9185 38.0287 20.9142C38.0301 20.9121 38.0312 20.9106 38.0319 20.9097L38.033 20.9085L38.033 20.9085C38.1519 20.7908 38.2219 20.7364 38.268 20.7094C38.2802 20.7023 38.2879 20.6988 38.2917 20.6973C38.3875 20.6975 38.4336 20.7143 38.4531 20.7237C38.4687 20.7312 38.5008 20.7492 38.5464 20.8132L39.361 20.2332L38.5464 20.8132C38.732 21.0739 38.9313 21.3239 39.111 21.5494C39.1325 21.5764 39.1537 21.6031 39.1746 21.6293C39.3775 21.8843 39.5553 22.112 39.7109 22.3443C40.6436 23.736 41.3152 25.2272 41.6624 26.8393C41.7335 27.1691 41.7925 27.5062 41.8533 27.8636C41.8606 27.9066 41.868 27.9499 41.8754 27.9936C41.9239 28.2798 41.9748 28.5797 42.0328 28.8811C42.0502 29.686 42.0508 30.4872 42.0508 31.32C42.0457 31.3509 42.0397 31.3863 42.0333 31.4247C42.007 31.5802 41.9726 31.7846 41.9566 31.9341C41.826 33.1561 41.5066 34.341 41.0396 35.5035Z" fill="#00C6AE" stroke="black" stroke-width="2"/>
<path d="M35.8504 27.2983L35.8504 27.2983C36.0804 27.8261 36.2159 28.3969 36.2636 28.9961C36.2759 29.1498 36.2889 29.2917 36.3012 29.4256C36.3346 29.7907 36.3625 30.096 36.3551 30.4168C36.3384 31.1433 36.2152 31.8682 36.0076 32.601C35.743 33.535 35.2944 34.3934 34.7117 35.2254C34.6542 35.3075 34.5928 35.3334 34.5535 35.3399C34.5201 35.3454 34.4551 35.3456 34.3615 35.2738L33.7524 36.0669L34.3615 35.2738C34.2383 35.1791 34.1882 35.1093 34.1682 35.071C34.154 35.0439 34.1411 35.0094 34.1479 34.9357L34.1479 34.9357C34.1479 34.9355 34.148 34.9344 34.1487 34.9318C34.1494 34.9289 34.1509 34.9232 34.1543 34.9143C34.1614 34.8953 34.1755 34.8646 34.2042 34.816C34.234 34.7655 34.271 34.7099 34.3244 34.6319C34.3313 34.6219 34.3385 34.6114 34.3462 34.6003C34.3919 34.5337 34.4504 34.4487 34.5048 34.3628L33.6603 33.8278L34.5048 34.3628C35.0513 33.5002 35.4756 32.5281 35.6087 31.4271L35.6118 31.402C35.6724 30.9007 35.7462 30.2907 35.7097 29.6755C35.638 28.4698 35.3055 27.3002 34.6419 26.2349C34.4823 25.9787 34.3018 25.7262 34.1441 25.5056C34.102 25.4466 34.0615 25.39 34.0235 25.3362L34.0235 25.3362C33.9581 25.2435 33.9409 25.1777 33.9362 25.1411C33.9314 25.1042 33.9356 25.0684 33.9511 25.0292C33.9848 24.9437 34.0865 24.8187 34.2807 24.7434C34.2806 24.7435 34.2808 24.7434 34.2814 24.7434C34.2907 24.742 34.3946 24.7266 34.4989 24.8609C34.5978 24.9881 34.6749 25.0982 34.7663 25.2287C34.8195 25.3047 34.8775 25.3876 34.9475 25.4847C35.0296 25.6451 35.1097 25.7994 35.1877 25.9495C35.4307 26.4176 35.6532 26.8459 35.8504 27.2983Z" fill="#00C6AE" stroke="black" stroke-width="2"/>
</g>
<defs>
<filter id="filter0_d_52_99" x="0" y="0" width="60" height="64" filterUnits="userSpaceOnUse" color-interpolation-filters="sRGB">
<feFlood flood-opacity="0" result="BackgroundImageFix"/>
<feColorMatrix in="SourceAlpha" type="matrix" values="0 0 0 0 0 0 0 0 0 0 0 0 0 0 0 0 0 0 127 0" result="hardAlpha"/>
<feOffset dy="4"/>
<feColorMatrix type="matrix" values="0 0 0 0 0.0941176 0 0 0 0 0.0980392 0 0 0 0 0.121569 0 0 0 1 0"/>
<feBlend mode="normal" in2="BackgroundImageFix" result="effect1_dropShadow_52_99"/>
<feBlend mode="normal" in="SourceGraphic" in2="effect1_dropShadow_52_99" result="shape"/>
</filter>
<clipPath id="clip0_52_99">
<rect width="26" height="26" fill="white" transform="translate(17 17)"/>
</clipPath>
</defs>
</svg>
